HIERARCHY
ROOT joint_Root
{
	OFFSET 0.0 0.0 0.0
	CHANNELS 6 Xposition Yposition Zposition Zrotation Xrotation Yrotation 
	JOINT Hips
	{
		OFFSET 4.5925 91.4895 -427.239
		CHANNELS 6 Xposition Yposition Zposition Zrotation Xrotation Yrotation 
		JOINT Spine
		{
			OFFSET 15.7357 0.0 0.0
			CHANNELS 6 Xposition Yposition Zposition Zrotation Xrotation Yrotation 
			JOINT Chest
			{
				OFFSET 8.98455 -0.406207 0.0
				CHANNELS 6 Xposition Yposition Zposition Zrotation Xrotation Yrotation 
				JOINT Neck
				{
					OFFSET 16.3773 0.0 0.0
					CHANNELS 6 Xposition Yposition Zposition Zrotation Xrotation Yrotation 
					JOINT Head
					{
						OFFSET 6.45672 0.0 0.0
						CHANNELS 6 Xposition Yposition Zposition Zrotation Xrotation Yrotation 
						End Site
						{
							OFFSET 0.0 0.0 0.0
						}
					}
				}
				JOINT Shoulder_L
				{
					OFFSET 12.9942 -0.242716 4.98039
					CHANNELS 6 Xposition Yposition Zposition Zrotation Xrotation Yrotation 
					JOINT UpperArm_L
					{
						OFFSET 5.34809 0.0 0.0
						CHANNELS 6 Xposition Yposition Zposition Zrotation Xrotation Yrotation 
						JOINT LowerArm_L
						{
							OFFSET 24.3286 1.87007e-05 0.0
							CHANNELS 6 Xposition Yposition Zposition Zrotation Xrotation Yrotation 
							JOINT Hand_L
							{
								OFFSET 22.2916 0.0 0.0
								CHANNELS 6 Xposition Yposition Zposition Zrotation Xrotation Yrotation 
								End Site
								{
									OFFSET 0.0 0.0 0.0
								}
							}
						}
					}
				}
				JOINT Shoulder_R
				{
					OFFSET 12.9945 -0.242716 -4.98039
					CHANNELS 6 Xposition Yposition Zposition Zrotation Xrotation Yrotation 
					JOINT UpperArm_R
					{
						OFFSET -5.34813 0.0 0.0
						CHANNELS 6 Xposition Yposition Zposition Zrotation Xrotation Yrotation 
						JOINT LowerArm_R
						{
							OFFSET -24.3289 0.000322201 0.0
							CHANNELS 6 Xposition Yposition Zposition Zrotation Xrotation Yrotation 
							JOINT Hand_R
							{
								OFFSET -22.2915 -0.000108084 0.0
								CHANNELS 6 Xposition Yposition Zposition Zrotation Xrotation Yrotation 
								End Site
								{
									OFFSET 0.0 0.0 0.0
								}
							}
						}
					}
				}
			}
		}
		JOINT UpperLeg_L
		{
			OFFSET -2.19248 -6.46944 0.0
			CHANNELS 6 Xposition Yposition Zposition Zrotation Xrotation Yrotation 
			JOINT LowerLeg_L
			{
				OFFSET 39.0811 0.0 -1.23785e-05
				CHANNELS 6 Xposition Yposition Zposition Zrotation Xrotation Yrotation 
				JOINT Foot_L
				{
					OFFSET 40.9854 0.0 -1.26872e-05
					CHANNELS 6 Xposition Yposition Zposition Zrotation Xrotation Yrotation 
					JOINT Toes_L
					{
						OFFSET 11.7543 0.0 0.0
						CHANNELS 6 Xposition Yposition Zposition Zrotation Xrotation Yrotation 
						End Site
						{
							OFFSET 0.0 0.0 0.0
						}
					}
				}
			}
		}
		JOINT UpperLeg_R
		{
			OFFSET -2.19251 6.46944 0.0
			CHANNELS 6 Xposition Yposition Zposition Zrotation Xrotation Yrotation 
			JOINT LowerLeg_R
			{
				OFFSET -39.0811 -0.00228153 -0.0401928
				CHANNELS 6 Xposition Yposition Zposition Zrotation Xrotation Yrotation 
				JOINT Foot_R
				{
					OFFSET -40.9854 0.0 0.0
					CHANNELS 6 Xposition Yposition Zposition Zrotation Xrotation Yrotation 
					JOINT Toes_R
					{
						OFFSET -11.7543 0.0 0.0
						CHANNELS 6 Xposition Yposition Zposition Zrotation Xrotation Yrotation 
						End Site
						{
							OFFSET 0.0 0.0 0.0
						}
					}
				}
			}
		}
	}
}
MOTION
Frames:	4
Frame Time:	0.0333333
0.000000 0.000000 0.000000 0.000000 0.000000 -0.000000 4.160030 90.544600 -0.824157 91.221600 -9.153310 16.968000 15.735700 0.000005 -0.000001 92.616900 81.086400 -96.148400 8.984550 -0.406207 -0.000000 10.076000 0.737380 -7.123200 16.377300 -0.000001 -0.000001 30.059600 4.078590 -1.824250 6.456720 -0.000001 -0.000000 13.224300 7.973110 -4.687780 12.994200 -0.242716 4.980390 -91.325600 4.599070 -73.902100 5.348090 -0.000007 -0.000001 -61.992200 31.707200 -13.976000 24.328600 0.000019 0.000005 11.712000 25.131000 -26.018800 22.291600 -0.000001 0.000005 9.784230 5.287140 0.429984 12.994500 -0.242716 -4.980390 90.371200 -1.453520 -75.672200 -5.348130 -0.000001 -0.000004 -45.851500 -39.646700 -80.947700 -24.328900 0.000322 -0.000009 7.500190 4.310900 -60.280300 -22.291500 -0.000108 -0.000004 29.903200 5.398260 -2.881190 -2.192480 -6.469440 -0.000000 -177.540000 -17.864600 7.155390 39.081100 -0.000007 -0.000012 -0.045342 0.077074 30.468200 40.985400 -0.000006 -0.000013 4.105510 3.681610 -71.035100 11.754300 -0.000000 0.000003 -0.000214 -0.001956 -16.651200 -2.192510 6.469440 -0.000001 168.057000 13.684700 -174.592000 -39.081100 -0.002282 -0.040193 -0.206125 0.342868 31.416800 -40.985400 0.000008 0.000006 0.789898 18.035000 -69.506400 -11.754300 -0.000006 -0.000006 -0.003396 -0.045001 -18.403400
0.000000 0.000000 0.000000 0.000000 0.000000 -0.000000 4.162830 90.553600 -0.876388 91.209500 -9.322580 16.912300 15.735700 0.000005 -0.000001 92.299200 81.098000 -95.740800 8.984550 -0.406207 -0.000000 10.052900 0.640845 -6.934890 16.377300 -0.000001 -0.000001 30.088400 3.824260 -1.466230 6.456720 -0.000001 -0.000000 13.124300 7.656040 -4.524180 12.994200 -0.242716 4.980390 -91.296400 4.532900 -74.021200 5.348090 -0.000007 -0.000001 -62.036400 32.208800 -14.386300 24.328600 0.000019 0.000005 11.652100 24.664300 -26.297200 22.291600 -0.000001 0.000005 9.849730 5.289280 0.370825 12.994500 -0.242716 -4.980390 90.435100 -1.668620 -75.381800 -5.348130 -0.000001 -0.000004 -44.084900 -38.703300 -83.195000 -24.328900 0.000322 -0.000009 7.806730 4.440190 -60.551900 -22.291500 -0.000108 -0.000004 29.681600 5.400670 -2.959300 -2.192480 -6.469440 -0.000000 -177.530000 -17.958200 7.071360 39.081100 -0.000007 -0.000012 -0.044800 0.076200 30.452400 40.985400 -0.000006 -0.000013 4.086230 3.605570 -70.990100 11.754300 -0.000000 0.000003 -0.000207 -0.001909 -16.649500 -2.192510 6.469440 -0.000001 168.143000 13.600300 -174.726000 -39.081100 -0.002282 -0.040193 -0.204366 0.340198 31.401200 -40.985400 0.000008 0.000006 0.807969 18.079500 -69.443000 -11.754300 -0.000006 -0.000006 -0.003532 -0.046484 -18.463700
0.000000 0.000000 0.000000 0.000000 0.000000 -0.000000 4.152460 90.567700 -0.927462 91.165400 -9.453220 16.880700 15.735700 0.000005 -0.000001 92.074600 81.102700 -95.438500 8.984550 -0.406207 -0.000000 10.043200 0.573077 -6.773530 16.377300 -0.000001 -0.000001 30.150400 3.557300 -1.055030 6.456720 -0.000001 -0.000000 13.052200 7.311200 -4.444910 12.994200 -0.242716 4.980390 -91.265200 4.457740 -74.137400 5.348090 -0.000007 -0.000001 -62.216700 32.415600 -14.583300 24.328600 0.000019 0.000005 11.814400 24.777600 -26.523900 22.291600 -0.000001 0.000005 9.735560 5.288700 0.386926 12.994500 -0.242716 -4.980390 90.500000 -1.879140 -75.097900 -5.348130 -0.000001 -0.000004 -42.409600 -37.864700 -85.236600 -24.328900 0.000322 -0.000009 8.400250 4.709620 -60.929600 -22.291500 -0.000108 -0.000004 29.353700 5.405520 -3.118220 -2.192480 -6.469440 -0.000000 -177.444000 -18.075600 7.043150 39.081100 -0.000007 -0.000012 -0.044388 0.075584 30.424800 40.985400 -0.000006 -0.000013 4.075120 3.616310 -70.951500 11.754300 -0.000000 0.000003 -0.000215 -0.001969 -16.651700 -2.192510 6.469440 -0.000001 168.250000 13.550400 -174.787000 -39.081100 -0.002282 -0.040193 -0.202668 0.338236 31.339400 -40.985400 0.000008 0.000006 0.825756 18.107600 -69.366900 -11.754300 -0.000006 -0.000006 -0.003337 -0.044359 -18.377200
0.000000 0.000000 0.000000 0.000000 0.000000 -0.000000 4.146120 90.576800 -0.972198 91.181100 -9.538200 16.827200 15.735700 0.000005 -0.000001 91.855300 81.114600 -95.172800 8.984550 -0.406207 -0.000000 10.019100 0.506299 -6.674960 16.377300 -0.000001 -0.000001 30.126100 3.316100 -0.691713 6.456720 -0.000001 -0.000000 13.115200 6.905370 -4.382790 12.994200 -0.242716 4.980390 -91.251400 4.443510 -74.254100 5.348090 -0.000007 -0.000001 -62.373100 32.623000 -14.623100 24.328600 0.000019 0.000005 11.831500 24.825100 -26.517000 22.291600 -0.000001 0.000005 9.668680 5.289550 0.363374 12.994500 -0.242716 -4.980390 90.579900 -2.150700 -74.907000 -5.348130 -0.000001 -0.000004 -40.937700 -37.161600 -86.945100 -24.328900 0.000322 -0.000009 9.049770 4.921710 -61.693900 -22.291500 -0.000108 -0.000004 29.022300 5.408200 -3.205810 -2.192480 -6.469440 -0.000000 -177.463000 -18.125300 6.970700 39.081100 -0.000007 -0.000012 -0.045777 0.078050 30.392100 40.985400 -0.000006 -0.000013 4.060130 3.585940 -70.902500 11.754300 -0.000000 0.000003 -0.000208 -0.001911 -16.649600 -2.192510 6.469440 -0.000001 168.285000 13.503100 -174.893000 -39.081100 -0.002282 -0.040193 -0.199781 0.333659 31.326800 -40.985400 0.000008 0.000006 0.839752 18.147300 -69.325100 -11.754300 -0.000006 -0.000006 -0.003292 -0.043867 -18.357200
